<mxfile host="app.diagrams.net" modified="2023-04-28T06:53:25.130Z" agent="Mozilla/5.0 (Windows NT 10.0; Win64; x64) AppleWebKit/537.36 (KHTML, like Gecko) Chrome/112.0.0.0 Safari/537.36 Edg/112.0.1722.48" etag="yaROnvLMVljo-2LPYeji" version="21.2.3" type="device">
  <diagram name="1 oldal" id="lw7hawBMwwC0mgtfG2iS">
    <mxGraphModel dx="1377" dy="756" grid="1" gridSize="10" guides="1" tooltips="1" connect="1" arrows="1" fold="1" page="1" pageScale="1" pageWidth="1169" pageHeight="827" math="0" shadow="0">
      <root>
        <mxCell id="0" />
        <mxCell id="1" parent="0" />
        <mxCell id="EKVrzhkI9Fu3TjrsduTn-1" value="&lt;b style=&quot;font-size: 14px;&quot;&gt;Chat history&lt;br&gt;&lt;/b&gt;&lt;br&gt;&lt;i&gt;Conversation Buffer memory&lt;/i&gt;" style="rounded=1;whiteSpace=wrap;html=1;" vertex="1" parent="1">
          <mxGeometry x="110" y="210" width="170" height="60" as="geometry" />
        </mxCell>
        <mxCell id="EKVrzhkI9Fu3TjrsduTn-2" value="&lt;font style=&quot;font-size: 14px;&quot;&gt;&lt;b&gt;LLM&lt;/b&gt;&lt;/font&gt;" style="ellipse;whiteSpace=wrap;html=1;aspect=fixed;" vertex="1" parent="1">
          <mxGeometry x="155" y="310" width="80" height="80" as="geometry" />
        </mxCell>
        <mxCell id="EKVrzhkI9Fu3TjrsduTn-3" value="&lt;span style=&quot;font-size: 14px;&quot;&gt;&lt;b&gt;New question&lt;/b&gt;&lt;/span&gt;" style="rounded=1;whiteSpace=wrap;html=1;" vertex="1" parent="1">
          <mxGeometry x="110" y="440" width="170" height="60" as="geometry" />
        </mxCell>
        <mxCell id="EKVrzhkI9Fu3TjrsduTn-4" value="" style="endArrow=classic;html=1;rounded=0;exitX=0.5;exitY=1;exitDx=0;exitDy=0;entryX=0.5;entryY=0;entryDx=0;entryDy=0;" edge="1" parent="1" source="EKVrzhkI9Fu3TjrsduTn-1" target="EKVrzhkI9Fu3TjrsduTn-2">
          <mxGeometry width="50" height="50" relative="1" as="geometry">
            <mxPoint x="560" y="410" as="sourcePoint" />
            <mxPoint x="610" y="360" as="targetPoint" />
          </mxGeometry>
        </mxCell>
        <mxCell id="EKVrzhkI9Fu3TjrsduTn-5" value="" style="endArrow=classic;html=1;rounded=0;exitX=0.5;exitY=0;exitDx=0;exitDy=0;entryX=0.5;entryY=1;entryDx=0;entryDy=0;" edge="1" parent="1" source="EKVrzhkI9Fu3TjrsduTn-3" target="EKVrzhkI9Fu3TjrsduTn-2">
          <mxGeometry width="50" height="50" relative="1" as="geometry">
            <mxPoint x="560" y="410" as="sourcePoint" />
            <mxPoint x="610" y="360" as="targetPoint" />
          </mxGeometry>
        </mxCell>
        <mxCell id="EKVrzhkI9Fu3TjrsduTn-7" value="&lt;font style=&quot;font-size: 14px;&quot;&gt;&lt;b&gt;Standalone &lt;br&gt;Question&lt;/b&gt;&lt;/font&gt;" style="rounded=0;whiteSpace=wrap;html=1;" vertex="1" parent="1">
          <mxGeometry x="320" y="320" width="120" height="60" as="geometry" />
        </mxCell>
        <mxCell id="EKVrzhkI9Fu3TjrsduTn-8" value="" style="endArrow=classic;html=1;rounded=0;exitX=1;exitY=0.5;exitDx=0;exitDy=0;entryX=0;entryY=0.5;entryDx=0;entryDy=0;" edge="1" parent="1" source="EKVrzhkI9Fu3TjrsduTn-2" target="EKVrzhkI9Fu3TjrsduTn-7">
          <mxGeometry width="50" height="50" relative="1" as="geometry">
            <mxPoint x="560" y="400" as="sourcePoint" />
            <mxPoint x="610" y="350" as="targetPoint" />
          </mxGeometry>
        </mxCell>
        <mxCell id="EKVrzhkI9Fu3TjrsduTn-9" value="&lt;font style=&quot;font-size: 14px;&quot;&gt;&lt;b&gt;LLM&lt;/b&gt;&lt;/font&gt;" style="ellipse;whiteSpace=wrap;html=1;aspect=fixed;" vertex="1" parent="1">
          <mxGeometry x="650" y="310" width="80" height="80" as="geometry" />
        </mxCell>
        <mxCell id="EKVrzhkI9Fu3TjrsduTn-10" value="" style="endArrow=classic;html=1;rounded=0;exitX=1;exitY=0.5;exitDx=0;exitDy=0;entryX=0;entryY=0.5;entryDx=0;entryDy=0;" edge="1" parent="1" source="EKVrzhkI9Fu3TjrsduTn-7" target="EKVrzhkI9Fu3TjrsduTn-9">
          <mxGeometry width="50" height="50" relative="1" as="geometry">
            <mxPoint x="560" y="400" as="sourcePoint" />
            <mxPoint x="610" y="350" as="targetPoint" />
          </mxGeometry>
        </mxCell>
        <mxCell id="EKVrzhkI9Fu3TjrsduTn-12" value="Graph Index -&lt;br&gt;Vector Index" style="sketch=0;outlineConnect=0;fontColor=#232F3E;gradientColor=none;strokeColor=#232F3E;fillColor=#ffffff;dashed=0;verticalLabelPosition=bottom;verticalAlign=top;align=center;html=1;fontSize=12;fontStyle=0;aspect=fixed;shape=mxgraph.aws4.resourceIcon;resIcon=mxgraph.aws4.global_secondary_index;" vertex="1" parent="1">
          <mxGeometry x="420" y="400" width="76" height="76" as="geometry" />
        </mxCell>
        <mxCell id="EKVrzhkI9Fu3TjrsduTn-13" value="" style="endArrow=classic;html=1;rounded=0;exitX=0.25;exitY=1;exitDx=0;exitDy=0;" edge="1" parent="1" source="EKVrzhkI9Fu3TjrsduTn-7" target="EKVrzhkI9Fu3TjrsduTn-12">
          <mxGeometry width="50" height="50" relative="1" as="geometry">
            <mxPoint x="560" y="400" as="sourcePoint" />
            <mxPoint x="610" y="350" as="targetPoint" />
            <Array as="points">
              <mxPoint x="350" y="438" />
            </Array>
          </mxGeometry>
        </mxCell>
        <mxCell id="EKVrzhkI9Fu3TjrsduTn-14" value="&lt;font style=&quot;font-size: 12px;&quot;&gt;&lt;i&gt;&quot;Do I have to&lt;br&gt;use tools?&quot;&lt;/i&gt;&lt;/font&gt;" style="edgeLabel;html=1;align=center;verticalAlign=middle;resizable=0;points=[];" vertex="1" connectable="0" parent="EKVrzhkI9Fu3TjrsduTn-13">
          <mxGeometry x="0.1094" y="-3" relative="1" as="geometry">
            <mxPoint x="-13" y="-33" as="offset" />
          </mxGeometry>
        </mxCell>
        <mxCell id="EKVrzhkI9Fu3TjrsduTn-15" value="" style="html=1;verticalLabelPosition=bottom;align=center;labelBackgroundColor=#ffffff;verticalAlign=top;strokeWidth=2;strokeColor=#0080F0;shadow=0;dashed=0;shape=mxgraph.ios7.icons.documents;" vertex="1" parent="1">
          <mxGeometry x="570" y="408" width="50" height="60" as="geometry" />
        </mxCell>
        <mxCell id="EKVrzhkI9Fu3TjrsduTn-16" value="" style="endArrow=classic;html=1;rounded=0;entryX=0.02;entryY=0.5;entryDx=0;entryDy=0;entryPerimeter=0;" edge="1" parent="1" source="EKVrzhkI9Fu3TjrsduTn-12" target="EKVrzhkI9Fu3TjrsduTn-15">
          <mxGeometry width="50" height="50" relative="1" as="geometry">
            <mxPoint x="560" y="390" as="sourcePoint" />
            <mxPoint x="610" y="340" as="targetPoint" />
          </mxGeometry>
        </mxCell>
        <mxCell id="EKVrzhkI9Fu3TjrsduTn-17" value="" style="endArrow=classic;html=1;rounded=0;exitX=1.02;exitY=0.5;exitDx=0;exitDy=0;exitPerimeter=0;entryX=0.5;entryY=1;entryDx=0;entryDy=0;" edge="1" parent="1" source="EKVrzhkI9Fu3TjrsduTn-15" target="EKVrzhkI9Fu3TjrsduTn-9">
          <mxGeometry width="50" height="50" relative="1" as="geometry">
            <mxPoint x="560" y="390" as="sourcePoint" />
            <mxPoint x="610" y="340" as="targetPoint" />
            <Array as="points">
              <mxPoint x="690" y="438" />
            </Array>
          </mxGeometry>
        </mxCell>
        <mxCell id="EKVrzhkI9Fu3TjrsduTn-18" value="&lt;font style=&quot;font-size: 14px;&quot;&gt;&lt;b&gt;Answer&lt;/b&gt;&lt;/font&gt;" style="ellipse;shape=cloud;whiteSpace=wrap;html=1;" vertex="1" parent="1">
          <mxGeometry x="800" y="310" width="120" height="80" as="geometry" />
        </mxCell>
        <mxCell id="EKVrzhkI9Fu3TjrsduTn-19" value="" style="endArrow=classic;html=1;rounded=0;exitX=1;exitY=0.5;exitDx=0;exitDy=0;entryX=0.075;entryY=0.5;entryDx=0;entryDy=0;entryPerimeter=0;" edge="1" parent="1" source="EKVrzhkI9Fu3TjrsduTn-9" target="EKVrzhkI9Fu3TjrsduTn-18">
          <mxGeometry width="50" height="50" relative="1" as="geometry">
            <mxPoint x="560" y="390" as="sourcePoint" />
            <mxPoint x="610" y="340" as="targetPoint" />
          </mxGeometry>
        </mxCell>
      </root>
    </mxGraphModel>
  </diagram>
</mxfile>
